<svg xmlns="http://www.w3.org/2000/svg" width="231" height="100" fill="none" viewBox="0 0 231 100"><path fill="#fff" fill-rule="evenodd" d="M9.91823 6.072C3.3915 7.22284 -0.966526 13.4467 0.184313 19.9735L6.072 53.3642C7.22284 59.8909 13.4467 64.249 19.9735 63.0981L53.3642 57.2104C59.8909 56.0596 64.249 49.8357 63.0981 43.309L57.2104 9.91823C56.0596 3.3915 49.8357 -0.966526 43.309 0.184313L9.91823 6.072ZM49.0965 37.3181C50.4338 44.9026 44.5326 51.1175 35.5224 52.7062C26.1131 54.3653 19.0929 50.8993 17.7153 43.0867L17.5343 42.0602L25.1758 40.7128L25.3266 41.5682C25.9802 45.2749 29.3611 47.4423 34.7216 46.4971C39.4548 45.6625 42.1621 43.0096 41.5085 39.3029C41.1164 37.0789 39.7513 35.6732 36.9505 35.4615L26.0421 34.6213C19.7258 34.1475 16.3818 31.856 15.326 25.8682C13.9987 18.3408 18.907 12.8302 27.8601 11.2515C36.6991 9.69296 43.1524 13.6118 44.3892 20.626L44.5602 21.5955L37.2038 22.8926L37.063 22.0942C36.4698 18.7297 33.8503 16.5456 28.946 17.4103C24.7261 18.1544 22.2905 20.3479 22.9039 23.8265C23.3161 26.1645 24.7449 27.265 27.0695 27.4431L38.5314 28.4208C44.6765 28.9248 48.1412 31.9007 49.0965 37.3181Z" clip-rule="evenodd"/><path fill="#fff" d="M80.3848 49.79C88.4337 49.79 93.8768 44.7522 94.1085 37.8614H86.9281C86.5807 40.8146 84.7277 43.4204 80.5585 43.4204C76.0997 43.4204 74.0151 40.5251 74.0151 36.4717V31.6076C74.0151 27.5542 76.0997 24.6589 80.5585 24.6589C84.7277 24.6589 86.5807 27.2647 86.9281 30.2178H94.1085C93.8768 23.3271 88.4337 18.2892 80.3848 18.2892C71.2936 18.2892 66.1399 24.0219 66.1399 31.8971V36.1822C66.1399 44.0573 71.2936 49.79 80.3848 49.79Z"/><path fill="#fff" d="M106.054 49.79C109.528 49.79 113.35 48.3424 114.74 46.3157V49.0952H122.325V29.8704C122.325 22.8638 117.172 18.2892 109.644 18.2892C103.159 18.2892 98.4681 21.4162 96.731 27.2647H104.027C104.838 25.6433 106.517 24.4273 109.239 24.4273C112.481 24.4273 114.45 26.5119 114.45 29.2914V33.4027C113.06 32.2446 110.397 30.8548 106.807 30.8548C99.5683 30.8548 94.6464 33.8659 94.6464 40.4093C94.6464 46.2578 99.2788 49.79 106.054 49.79ZM108.081 44.5785C104.78 44.5785 102.29 42.9571 102.29 40.1777C102.29 37.3982 104.606 35.8926 108.312 35.8926C111.844 35.8926 114.45 37.4561 114.45 40.1197C114.45 42.6676 111.555 44.5785 108.081 44.5785Z"/><path fill="#fff" d="M125.16 49.0952H133.036V31.2602C133.036 27.2067 135.294 25.1221 138.826 25.1221C142.648 25.1221 144.327 27.6121 144.327 31.0864V49.0952H152.202V29.8125C152.202 22.5743 148.091 18.2892 141.548 18.2892C137.263 18.2892 134.194 19.7948 132.688 22.5743V18.9841H125.16V49.0952Z"/><path fill="#fff" d="M155.023 49.0952H162.898V31.2602C162.898 27.2067 165.156 25.1221 168.688 25.1221C172.51 25.1221 174.19 27.6121 174.19 31.0864V49.0952H182.065V29.8125C182.065 22.5743 177.953 18.2892 171.41 18.2892C167.125 18.2892 164.056 19.7948 162.55 22.5743V18.9841H155.023V49.0952Z"/><path fill="#fff" d="M197.566 49.79C204.225 49.79 209.611 45.7945 210.653 40.2935H203.762C203.009 42.3781 200.925 44.1153 197.566 44.1153C192.992 44.1153 191.197 41.0462 191.197 37.514V36.7612H210.885V31.4918C210.885 24.2535 206.368 18.2892 197.45 18.2892C188.417 18.2892 183.553 24.0798 183.553 32.2446V36.3559C183.553 44.8101 189.054 49.79 197.566 49.79ZM191.197 30.9127C191.197 26.8593 192.934 23.8482 197.45 23.8482C201.678 23.8482 203.646 26.6856 203.646 30.4495V31.2022H191.197V30.9127Z"/><path fill="#fff" d="M212.655 49.0952H220.53V35.1978C220.53 29.1176 223.31 26.5698 228.463 26.5698H230.085V18.7525H229.158C224.641 18.7525 221.109 20.3159 220.125 24.8326V18.9841H212.655V49.0952Z"/><path fill="#fff" d="M40.4238 95H41.4878V86.95L46.8778 95H47.8998V85.2H46.8358V93.25L41.4458 85.2H40.4238V95ZM53.4413 95.168C55.4713 95.168 56.6333 93.768 56.6333 92.004V90.828C56.6333 89.064 55.4713 87.664 53.4413 87.664C51.4113 87.664 50.2353 89.064 50.2353 90.828V92.004C50.2353 93.768 51.3973 95.168 53.4413 95.168ZM55.6113 90.842V91.99C55.6113 93.348 54.8553 94.314 53.4413 94.314C52.0273 94.314 51.2713 93.348 51.2713 91.99V90.842C51.2713 89.484 52.0273 88.518 53.4413 88.518C54.8553 88.518 55.6113 89.484 55.6113 90.842ZM62.4793 95H63.5433V90.786C63.5433 89.302 64.4113 88.588 65.5873 88.588C66.7633 88.588 67.3653 89.414 67.3653 90.632V95H68.4293V90.786C68.4293 89.302 69.2973 88.588 70.4733 88.588C71.6493 88.588 72.2513 89.414 72.2513 90.632V95H73.3153V90.478C73.3153 88.784 72.3073 87.664 70.7393 87.664C69.4933 87.664 68.6253 88.224 68.1353 89.064C67.7293 88.196 66.9173 87.664 65.8533 87.664C64.6073 87.664 63.8233 88.238 63.4873 89.05V87.832H62.4793V95ZM78.6446 95.168C80.6746 95.168 81.8366 93.768 81.8366 92.004V90.828C81.8366 89.064 80.6746 87.664 78.6446 87.664C76.6146 87.664 75.4386 89.064 75.4386 90.828V92.004C75.4386 93.768 76.6006 95.168 78.6446 95.168ZM80.8146 90.842V91.99C80.8146 93.348 80.0586 94.314 78.6446 94.314C77.2306 94.314 76.4746 93.348 76.4746 91.99V90.842C76.4746 89.484 77.2306 88.518 78.6446 88.518C80.0586 88.518 80.8146 89.484 80.8146 90.842ZM84.0393 95H85.1033V91.486C85.1033 89.68 85.9713 88.784 87.3293 88.784H87.5393V87.79H87.3713C86.0693 87.79 85.2993 88.378 85.0333 89.484V87.832H84.0393V95ZM91.9595 95.168C93.4575 95.168 94.6475 94.258 94.8855 92.97H93.9335C93.6955 93.782 93.0375 94.356 91.9595 94.356C90.4615 94.356 89.8175 93.348 89.8175 92.102V91.85H94.9555V90.786C94.9555 89.022 93.9615 87.664 91.9175 87.664C89.9015 87.664 88.7955 88.952 88.7955 90.898V92.046C88.7955 93.978 90.0975 95.168 91.9595 95.168ZM89.8175 90.814C89.8175 89.498 90.3775 88.476 91.9175 88.476C93.3175 88.476 93.9615 89.428 93.9615 90.702V91.038H89.8175V90.814ZM101.885 97.436V93.936C102.319 94.664 103.159 95.168 104.279 95.168C106.085 95.168 107.247 93.824 107.247 91.962V90.87C107.247 89.05 106.169 87.664 104.251 87.664C103.061 87.664 102.137 88.294 101.829 88.952V87.832H100.821V97.436H101.885ZM106.183 91.92C106.183 93.236 105.441 94.3 104.083 94.3C102.893 94.3 101.885 93.39 101.885 91.92V90.996C101.885 89.61 102.655 88.532 104.069 88.532C105.553 88.532 106.183 89.596 106.183 90.912V91.92ZM115.321 95V90.24C115.321 88.826 114.257 87.664 112.479 87.664C111.065 87.664 110.057 88.392 109.693 89.582H110.673C110.967 88.924 111.555 88.504 112.465 88.504C113.613 88.504 114.257 89.26 114.257 90.24V91.57C113.851 91.15 113.095 90.674 111.961 90.674C110.253 90.674 109.119 91.528 109.119 92.914C109.119 94.216 110.141 95.168 111.835 95.168C113.025 95.168 113.991 94.608 114.299 94.104V95H115.321ZM112.059 94.482C110.953 94.482 110.127 93.922 110.127 92.928C110.127 91.934 110.925 91.374 112.115 91.374C113.193 91.374 114.257 92.004 114.257 92.9C114.257 93.824 113.179 94.482 112.059 94.482ZM118.851 97.436V93.936C119.285 94.664 120.125 95.168 121.245 95.168C123.051 95.168 124.213 93.824 124.213 91.962V90.87C124.213 89.05 123.135 87.664 121.217 87.664C120.027 87.664 119.103 88.294 118.795 88.952V87.832H117.787V97.436H118.851ZM123.149 91.92C123.149 93.236 122.407 94.3 121.049 94.3C119.859 94.3 118.851 93.39 118.851 91.92V90.996C118.851 89.61 119.621 88.532 121.035 88.532C122.519 88.532 123.149 89.596 123.149 90.912V91.92ZM129.221 95.168C130.719 95.168 131.909 94.258 132.147 92.97H131.195C130.957 93.782 130.299 94.356 129.221 94.356C127.723 94.356 127.079 93.348 127.079 92.102V91.85H132.217V90.786C132.217 89.022 131.223 87.664 129.179 87.664C127.163 87.664 126.057 88.952 126.057 90.898V92.046C126.057 93.978 127.359 95.168 129.221 95.168ZM127.079 90.814C127.079 89.498 127.639 88.476 129.179 88.476C130.579 88.476 131.223 89.428 131.223 90.702V91.038H127.079V90.814ZM134.439 95H135.503V91.486C135.503 89.68 136.371 88.784 137.729 88.784H137.939V87.79H137.771C136.469 87.79 135.699 88.378 135.433 89.484V87.832H134.439V95ZM143.298 95H144.362V91.486C144.362 89.68 145.23 88.784 146.588 88.784H146.798V87.79H146.63C145.328 87.79 144.558 88.378 144.292 89.484V87.832H143.298V95ZM151.218 95.168C152.716 95.168 153.906 94.258 154.144 92.97H153.192C152.954 93.782 152.296 94.356 151.218 94.356C149.72 94.356 149.076 93.348 149.076 92.102V91.85H154.214V90.786C154.214 89.022 153.22 87.664 151.176 87.664C149.16 87.664 148.054 88.952 148.054 90.898V92.046C148.054 93.978 149.356 95.168 151.218 95.168ZM149.076 90.814C149.076 89.498 149.636 88.476 151.176 88.476C152.576 88.476 153.22 89.428 153.22 90.702V91.038H149.076V90.814ZM159.264 95.168C161.07 95.168 162.246 93.992 162.33 92.48H161.378C161.238 93.446 160.636 94.328 159.278 94.328C157.808 94.328 157.122 93.376 157.122 92.032V90.8C157.122 89.456 157.808 88.504 159.278 88.504C160.636 88.504 161.238 89.386 161.378 90.352H162.33C162.246 88.84 161.07 87.664 159.264 87.664C157.276 87.664 156.086 89.008 156.086 90.814V92.018C156.086 93.824 157.276 95.168 159.264 95.168ZM167.364 95.168C168.862 95.168 170.052 94.258 170.29 92.97H169.338C169.1 93.782 168.442 94.356 167.364 94.356C165.866 94.356 165.222 93.348 165.222 92.102V91.85H170.36V90.786C170.36 89.022 169.366 87.664 167.322 87.664C165.306 87.664 164.2 88.952 164.2 90.898V92.046C164.2 93.978 165.502 95.168 167.364 95.168ZM165.222 90.814C165.222 89.498 165.782 88.476 167.322 88.476C168.722 88.476 169.366 89.428 169.366 90.702V91.038H165.222V90.814ZM172.652 95H173.716V87.832H172.652V95ZM172.512 85.942C172.512 86.32 172.778 86.586 173.184 86.586C173.59 86.586 173.856 86.32 173.856 85.942C173.856 85.564 173.59 85.298 173.184 85.298C172.778 85.298 172.512 85.564 172.512 85.942ZM177.398 97.436V93.936C177.832 94.664 178.672 95.168 179.792 95.168C181.598 95.168 182.76 93.824 182.76 91.962V90.87C182.76 89.05 181.682 87.664 179.764 87.664C178.574 87.664 177.65 88.294 177.342 88.952V87.832H176.334V97.436H177.398ZM181.696 91.92C181.696 93.236 180.954 94.3 179.596 94.3C178.406 94.3 177.398 93.39 177.398 91.92V90.996C177.398 89.61 178.168 88.532 179.582 88.532C181.066 88.532 181.696 89.596 181.696 90.912V91.92ZM188.247 95V94.132H187.533C186.735 94.132 186.469 93.824 186.469 93.096V88.7H188.303V87.832H186.469V85.774H185.405V87.832H184.187V88.7H185.405V93.096C185.405 94.314 185.979 95 187.351 95H188.247ZM190.74 92.424H191.3L191.58 88.91V85.2H190.46V88.91L190.74 92.424ZM190.306 94.398C190.306 94.804 190.614 95.084 191.02 95.084C191.426 95.084 191.734 94.804 191.734 94.398C191.734 93.992 191.44 93.712 191.02 93.712C190.6 93.712 190.306 93.992 190.306 94.398Z"/></svg>